<?xml version="1.0" encoding="iso-8859-1"?>
<!-- Generator: Adobe Illustrator 18.0.0, SVG Export Plug-In . SVG Version: 6.00 Build 0)  -->
<!DOCTYPE svg PUBLIC "-//W3C//DTD SVG 1.1//EN" "http://www.w3.org/Graphics/SVG/1.1/DTD/svg11.dtd">
<svg version="1.1" id="Capa_1" xmlns="http://www.w3.org/2000/svg" xmlns:xlink="http://www.w3.org/1999/xlink" x="0px" y="0px"
	 viewBox="0 0 60 60" style="enable-background:new 0 0 60 60;" xml:space="preserve">
<g>
	<circle cx="14" cy="24" r="1"/>
	<circle cx="14" cy="27" r="1"/>
	<circle cx="14" cy="30" r="1"/>
	<circle cx="14" cy="33" r="1"/>
	<circle cx="14" cy="36" r="1"/>
	<path d="M59,26h-2.325C54.656,13.396,43.347,4,30,4C20.201,4,11.217,7.763,5.752,14.093C5.564,14.038,5.371,14,5.168,14
		C1.617,14,0,22.294,0,30s1.617,16,5.168,16c0.203,0,0.396-0.038,0.584-0.093C11.217,52.237,20.201,56,30,56
		c13.347,0,24.656-9.396,26.675-22H59h1v-3h-6.586L37,47.414V51c0,0.553-0.448,1-1,1s-1-0.447-1-1v-3h-3c-0.552,0-1-0.447-1-1
		s0.448-1,1-1h3.586l15-15h-5.172L38,38.414V42c0,0.553-0.448,1-1,1s-1-0.447-1-1v-3h-3c-0.552,0-1-0.447-1-1s0.448-1,1-1h3.586l6-6
		H41h-8.586l-2.707,2.707C29.512,33.902,29.256,34,29,34s-0.512-0.098-0.707-0.293c-0.391-0.391-0.391-1.023,0-1.414L30.586,30
		l-2.293-2.293c-0.391-0.391-0.391-1.023,0-1.414s1.023-0.391,1.414,0L32.414,29H41h1.586l-5.793-5.793
		c-0.061-0.061-0.096-0.136-0.138-0.207H33c-0.552,0-1-0.447-1-1s0.448-1,1-1h3v-3c0-0.553,0.448-1,1-1s1,0.447,1,1v3.656
		c0.071,0.042,0.146,0.076,0.207,0.137L45.414,29h5.172l-15-15H32c-0.552,0-1-0.447-1-1s0.448-1,1-1h3V9c0-0.553,0.448-1,1-1
		s1,0.447,1,1v3.586L53.414,29H60v-3H59z M27,43c0-0.552,0.448-1,1-1s1,0.448,1,1s-0.448,1-1,1S27,43.552,27,43z M22,22
		c0,0.552-0.448,1-1,1s-1-0.448-1-1s0.448-1,1-1S22,21.448,22,22z M21,16c0-0.552,0.448-1,1-1s1,0.448,1,1s-0.448,1-1,1
		S21,16.552,21,16z M22,39c-0.552,0-1-0.448-1-1s0.448-1,1-1s1,0.448,1,1S22.552,39,22,39z M24,47c0,0.552-0.448,1-1,1s-1-0.448-1-1
		s0.448-1,1-1S24,46.448,24,47z M23,31c-0.552,0-1-0.448-1-1s0.448-1,1-1s1,0.448,1,1S23.552,31,23,31z M7.208,44.555
		c0.319-0.661,0.522-1.55,0.647-2.697c0.001-0.009,0.002-0.018,0.003-0.027c0.124-1.151,0.172-2.561,0.182-4.26
		c0-0.003,0-0.005,0-0.008c0.007-1.135-0.002-2.392-0.016-3.795C8.013,32.564,8,31.302,8,30s0.013-2.564,0.024-3.769
		c0.014-1.403,0.022-2.66,0.016-3.795c0-0.002,0-0.005,0-0.008c-0.01-1.699-0.058-3.109-0.182-4.26
		c-0.001-0.009-0.002-0.018-0.003-0.027c-0.125-1.146-0.328-2.035-0.647-2.697c3.102-3.617,7.465-6.331,12.494-7.901
		c-2.243,2.38-3.158,5.765-3.515,9.785C15.833,17.118,15.434,17,15,17c-3.42,0-6,5.589-6,13s2.58,13,6,13
		c0.433,0,0.833-0.119,1.187-0.333c0.357,4.022,1.271,7.408,3.515,9.789C14.673,50.885,10.31,48.172,7.208,44.555z M15.982,26.702
		C15.991,27.781,16,28.882,16,30s-0.009,2.219-0.018,3.298c-0.011,1.348-0.02,2.662-0.012,3.941c-0.081,1.796-0.28,3.2-0.747,3.67
		C15.154,40.978,15.1,41,15,41c-1.888,0-4-4.704-4-11s2.112-11,4-11c0.108,0,0.166,0.023,0.238,0.096
		c0.453,0.457,0.65,1.787,0.732,3.495C15.961,23.923,15.971,25.294,15.982,26.702z M29,36c0.552,0,1,0.448,1,1s-0.448,1-1,1
		s-1-0.448-1-1S28.448,36,29,36z M27,23c-0.552,0-1-0.448-1-1s0.448-1,1-1s1,0.448,1,1S27.552,23,27,23z M28,12
		c-0.552,0-1-0.448-1-1s0.448-1,1-1s1,0.448,1,1S28.552,12,28,12z"/>
</g>
<g>
</g>
<g>
</g>
<g>
</g>
<g>
</g>
<g>
</g>
<g>
</g>
<g>
</g>
<g>
</g>
<g>
</g>
<g>
</g>
<g>
</g>
<g>
</g>
<g>
</g>
<g>
</g>
<g>
</g>
</svg>
